Coordinates
version=1
nRows=6
nColumns=63
inDegrees=yes

Units are S.I. units (second, meters, Newtons, ...)
If the header above contains a line with 'inDegrees', this indicates whether rotational values are in degrees (yes) or radians (no).

endheader
time	pelvis_tilt	pelvis_list	pelvis_rotation	pelvis_tx	pelvis_ty	pelvis_tz	hip_flexion_r	hip_adduction_r	hip_rotation_r	knee_angle_r	knee_angle_r_beta	ankle_angle_r	subtalar_angle_r	mtp_angle_r	hip_flexion_l	hip_adduction_l	hip_rotation_l	knee_angle_l	knee_angle_l_beta	ankle_angle_l	subtalar_angle_l	mtp_angle_l	L5_S1_Flex_Ext	L5_S1_Lat_Bending	L5_S1_axial_rotation	L4_L5_Flex_Ext	L4_L5_Lat_Bending	L4_L5_axial_rotation	L3_L4_Flex_Ext	L3_L4_Lat_Bending	L3_L4_axial_rotation	L2_L3_Flex_Ext	L2_L3_Lat_Bending	L2_L3_axial_rotation	L1_L2_Flex_Ext	L1_L2_Lat_Bending	L1_L2_axial_rotation	L1_T12_Flex_Ext	L1_T12_Lat_Bending	L1_T12_axial_rotation	Abs_r3	Abs_r2	Abs_r1	Abs_t1	Abs_t2	neck_flexion	neck_bending	neck_rotation	arm_flex_r	arm_add_r	arm_rot_r	elbow_flex_r	pro_sup_r	wrist_flex_r	wrist_dev_r	arm_flex_l	arm_add_l	arm_rot_l	elbow_flex_l	pro_sup_l	wrist_flex_l	wrist_dev_l
      4.18333333	      0.78465060	    -11.08255054	    102.86183617	      0.17641777	      0.34290782	      0.55145613	     -9.81388071	      1.36281355	     -4.28607754	      2.43666255	      0.04252778	     12.56217999	    -13.30531724	      0.00000000	    -10.97081648	      1.29595359	     -9.75829203	      0.32661553	      0.00570052	     23.48732101	      6.66299469	      0.00000000	      0.10414515	      0.13876615	      0.96446271	      0.19340796	      0.18455898	      1.02474163	      0.17110007	      0.33739602	      1.02474163	      0.11902749	      0.33739602	      0.84390488	      0.09670919	      0.28297193	      0.78362596	      0.05950854	      0.21494877	      0.72334704	      0.74389839	      1.56975043	      5.36405228	      0.00000000	      0.00000000	     28.14647569	     -4.29268170	     -7.16077156	      8.34082495	    -15.49794935	     84.45165765	     19.21185350	     27.26480722	     -2.15460213	    -19.17945835	     14.86865495	     -8.05272738	    161.00667978	     15.14392425	      8.82579017	     -3.45955210	     -2.25004193
      4.20000000	      0.80512620	    -11.13541323	    103.11082033	      0.17540612	      0.34237758	      0.55205501	     -9.85263704	      1.40194112	     -5.33415417	      2.13123528	      0.03719707	     12.43392773	    -12.38734479	      0.00000000	    -10.87979620	      1.29979158	     -8.37245876	      0.32369016	      0.00564946	     23.37412599	      5.11183902	      0.00000000	      0.11459748	      0.14425628	      0.89395553	      0.21281898	      0.19186086	      0.94982775	      0.18827220	      0.35074473	      0.94982775	      0.13097346	      0.35074473	      0.78221109	      0.10641522	      0.29416741	      0.72633887	      0.06548100	      0.22345298	      0.67046665	      0.81855833	      1.63185592	      4.97191246	      0.00000000	      0.00000000	     28.18486907	     -4.69798354	     -7.18076458	      8.49814541	    -15.30958350	     84.80932287	     18.82434266	     24.74212431	     -1.83657624	    -17.60662030	     14.58337100	     -8.29725142	    159.25530562	     15.38332451	      6.62504700	     -4.15112894	     -2.04276299
      4.21666667	      0.81634777	    -11.19865946	    103.25508817	      0.17462984	      0.34198283	      0.55287241	     -9.78855479	      1.40016513	     -5.47268443	      1.92578045	      0.03361121	     12.72668495	    -11.80116848	      0.00000000	    -10.76264274	      1.33864917	     -6.38166184	      0.30070382	      0.00524827	     23.11831363	      2.53379879	      0.00000000	      0.12705069	      0.14624301	      0.83154408	      0.23594584	      0.19450320	      0.88351558	      0.20873158	      0.35557526	      0.88351558	      0.14520624	      0.35557526	      0.72760107	      0.11797927	      0.29821875	      0.67562956	      0.07259677	      0.22653042	      0.62365806	      0.90751039	      1.65433018	      4.62479869	      0.00000000	      0.00000000	     28.21603491	     -4.48222282	     -6.73836479	     10.17509251	    -14.58083044	     98.49535375	     17.00497375	     12.89665581	     -1.29558386	    -19.37648082	     14.25453673	     -8.93879376	    155.04526713	     15.75197065	      6.62289922	     -4.70602021	     -1.55009489
      4.23333333	      0.81787171	    -11.08885784	    103.50768117	      0.17363508	      0.34195396	      0.55375853	     -9.88263349	      1.41186238	     -6.51207791	      1.75090916	      0.03055913	     13.66285777	     -9.59528934	      0.00000000	    -10.79996088	      1.32136235	     -6.26003093	      0.29324135	      0.00511803	     23.22032008	      2.64974032	      0.00000000	      0.10541508	      0.15298047	      0.80391791	      0.19576634	      0.20346403	      0.85416278	      0.17318643	      0.37195672	      0.85416278	      0.12047889	      0.37195672	      0.70342817	      0.09788844	      0.31195778	      0.65318330	      0.06023418	      0.23696675	      0.60293843	      0.75296937	      1.73054569	      4.47115026	      0.00000000	      0.00000000	     28.24279786	     -4.52021616	     -6.67232362	     10.03323956	    -14.58404378	     97.44817378	     16.46301053	     14.36693103	     -2.50123028	    -19.11567515	     14.05964130	     -9.32169635	    153.36521444	     15.61831911	      7.68968255	     -5.41287984	     -1.29796949
      4.25000000	      0.91488354	    -11.21047372	    103.95932371	      0.17263937	      0.34175207	      0.55482808	     -9.76622954	      1.55533730	     -4.82149021	      1.43417626	      0.02503110	     13.36577406	    -11.68602824	      0.00000000	    -10.56130297	      1.20256417	     -5.42801504	      0.28567125	      0.00498590	     23.20543556	      2.23645748	      0.00000000	      0.12716130	      0.16184527	      0.72275908	      0.23615124	      0.21525420	      0.76793152	      0.20891329	      0.39351058	      0.76793152	      0.14533265	      0.39351058	      0.63241419	      0.11808198	      0.33003487	      0.58724175	      0.07265997	      0.25069832	      0.54206931	      0.90830043	      1.83082602	      4.01976916	      0.00000000	      0.00000000	     28.25966791	     -4.28654827	     -6.25984206	     10.27608025	    -14.68271741	     99.37739618	     16.18940614	     12.39118301	     -3.88364236	    -19.34487706	     13.88222489	    -10.35023868	    148.70084142	     16.55121447	      5.12684713	     -6.05937620	     -0.69850349
      4.26666667	      0.96088109	    -11.27281743	    104.49215748	      0.17158653	      0.34189814	      0.55591867	     -9.68730721	      1.61511012	     -5.23159691	      1.25851963	      0.02196531	     13.84364258	    -10.95514756	      0.00000000	    -10.37733740	      1.11218734	     -4.96474246	      0.28489936	      0.00497243	     23.16353154	      2.32574036	      0.00000000	      0.13383733	      0.16459280	      0.65739386	      0.24854931	      0.21890842	      0.69848098	      0.21988136	      0.40019093	      0.69848098	      0.15296269	      0.40019093	      0.57521963	      0.12428135	      0.33563763	      0.53413251	      0.07647465	      0.25495424	      0.49304540	      0.95598670	      1.86190665	      3.65622746	      0.00000000	      0.00000000	     28.27313386	     -4.34398510	     -6.42019271	     10.12075344	    -14.95150954	     97.83307457	     16.11617226	     10.94142571	     -4.84803337	    -19.27273697	     13.80816473	    -11.10825173	    147.06790020	     16.73204059	      4.52918069	     -6.79899399	     -0.41333710
